<svg xmlns="http://www.w3.org/2000/svg" viewBox="0 0 120 120"><g transform="translate(7190 13151)"><rect width="120" height="120" transform="translate(-7190 -13151)" fill="none"/><g transform="translate(-7768 -14765)"><path d="M57.471,56.473a3.231,3.231,0,0,0-2.3.955,3.272,3.272,0,0,0,0,4.614,3.259,3.259,0,1,0,2.3-5.569" transform="translate(571.938 1599.439)" fill="#1fa9c3"/><path d="M48.84,47.092l-1.893-2.431.015-.037,3.054-.377a.951.951,0,0,0,.833-.944V39.448a.951.951,0,0,0-.833-.944l-3.054-.377-.016-.037,1.893-2.431a.954.954,0,0,0-.077-1.258l-2.718-2.725a.947.947,0,0,0-1.255-.077l-2.426,1.9-.037-.015-.377-3.061a.95.95,0,0,0-.942-.835H37.163a.95.95,0,0,0-.942.835l-.377,3.061-.037.015-2.425-1.9a.947.947,0,0,0-1.255.077L29.409,34.4a.953.953,0,0,0-.077,1.258l1.893,2.431-.016.037-3.054.377a.951.951,0,0,0-.833.944V43.3a.951.951,0,0,0,.833.944l3.054.377.016.037-1.893,2.431a.953.953,0,0,0,.077,1.258l2.718,2.725a.948.948,0,0,0,1.255.077l2.425-1.9.037.015.377,3.061a.95.95,0,0,0,.942.835h3.844a.95.95,0,0,0,.942-.835l.377-3.061.037-.016,2.425,1.9a.948.948,0,0,0,1.255-.077l2.718-2.725a.954.954,0,0,0,.077-1.258M45.3,49.134,43.077,47.4a.947.947,0,0,0-1.011-.1,6.609,6.609,0,0,1-.907.376.951.951,0,0,0-.646.788l-.345,2.8H38l-.345-2.8a.951.951,0,0,0-.646-.788,6.536,6.536,0,0,1-.906-.376.948.948,0,0,0-1.012.1l-2.218,1.736L31.344,47.6l1.731-2.224a.953.953,0,0,0,.1-1.014,6.6,6.6,0,0,1-.375-.909.95.95,0,0,0-.786-.647l-2.794-.345V40.289l2.794-.345A.95.95,0,0,0,32.8,39.3a6.583,6.583,0,0,1,.375-.909.954.954,0,0,0-.1-1.014L31.344,35.15l1.531-1.535,2.218,1.736a.948.948,0,0,0,1.012.1,6.648,6.648,0,0,1,.907-.376.951.951,0,0,0,.646-.787l.345-2.8h2.165l.345,2.8a.951.951,0,0,0,.646.787,6.642,6.642,0,0,1,.908.376.946.946,0,0,0,1.011-.1L45.3,33.615l1.531,1.535L45.1,37.374a.954.954,0,0,0-.1,1.014,6.607,6.607,0,0,1,.376.909.95.95,0,0,0,.786.647l2.793.345V42.46l-2.793.345a.95.95,0,0,0-.786.647,6.618,6.618,0,0,1-.375.909.953.953,0,0,0,.1,1.014L46.827,47.6Z" transform="translate(590.323 1617.8)" fill="#1fa9c3"/><path d="M117.21,88.4a2.23,2.23,0,0,0-.386.034,2.21,2.21,0,0,0,.379,4.386,2.208,2.208,0,0,0,2.174-2.593A2.2,2.2,0,0,0,117.21,88.4" transform="translate(530.387 1577.642)" fill="#1fa9c3"/><path d="M111,72.962a.954.954,0,0,0-.984-.785l-1.843.1.865-1.633a.953.953,0,0,0-.294-1.226l-2.313-1.624a.948.948,0,0,0-1.25.142l-1.235,1.374-.54-1.769a.948.948,0,0,0-1.073-.658l-2.781.491a.952.952,0,0,0-.783.986l.1,1.847-1.63-.867a.948.948,0,0,0-1.223.295l-1.62,2.319a.954.954,0,0,0,.142,1.253l1.37,1.238-1.764.542a.952.952,0,0,0-.657,1.075l.49,2.787a.956.956,0,0,0,.984.785l1.843-.1-.865,1.633a.953.953,0,0,0,.294,1.226l2.313,1.623a.948.948,0,0,0,1.25-.142L101.03,82.5l.54,1.769a.947.947,0,0,0,1.072.658l2.781-.492a.951.951,0,0,0,.783-.986l-.1-1.847,1.63.868a.948.948,0,0,0,1.223-.295l1.62-2.319a.953.953,0,0,0-.142-1.253l-1.371-1.238,1.764-.541a.952.952,0,0,0,.657-1.075Zm-3.289,2.831a.951.951,0,0,0-.662.774,4.53,4.53,0,0,1-.148.668.953.953,0,0,0,.273.982l1.37,1.238-.657.94-1.63-.867a.946.946,0,0,0-1.014.078,4.626,4.626,0,0,1-.576.368.952.952,0,0,0-.5.887l.1,1.846-1.127.2-.54-1.768a.95.95,0,0,0-.772-.663,4.587,4.587,0,0,1-.667-.148.948.948,0,0,0-.98.274l-1.235,1.373-.938-.658.865-1.633a.954.954,0,0,0-.078-1.017,4.588,4.588,0,0,1-.367-.577.955.955,0,0,0-.886-.5l-1.842.1-.2-1.13,1.764-.541a.951.951,0,0,0,.662-.774,4.538,4.538,0,0,1,.148-.668.954.954,0,0,0-.273-.982l-1.37-1.238.657-.94,1.629.867a.947.947,0,0,0,1.014-.078,4.6,4.6,0,0,1,.577-.368.953.953,0,0,0,.5-.888l-.1-1.846,1.127-.2.54,1.768a.949.949,0,0,0,.771.663,4.558,4.558,0,0,1,.666.148.949.949,0,0,0,.98-.273l1.235-1.374.938.658-.865,1.633a.954.954,0,0,0,.078,1.016,4.57,4.57,0,0,1,.367.578.958.958,0,0,0,.886.5l1.842-.1.2,1.13Z" transform="translate(545.105 1592.344)" fill="#1fa9c3"/><path d="M57.826,40.573l-5.7-14.163a29.944,29.944,0,0,0-2.109-12.13C47.632,8.449,42.107,1.259,29.325.117A26.441,26.441,0,0,0,8.818,6.845,27.9,27.9,0,0,0,0,27.746,31.42,31.42,0,0,0,7.17,47.713c1.45,1.755,2.841,3.165,4.068,4.409,3.376,3.422,5.606,5.683,5.606,11.529v3.91a1.109,1.109,0,0,0,.945,1.1L40.17,71.988a1.122,1.122,0,0,0,.162.012,1.108,1.108,0,0,0,1.107-1.11V58.04a1.348,1.348,0,0,1,.42-.983,1.334,1.334,0,0,1,1.015-.373l4.438.147a4.59,4.59,0,0,0,4.8-4.592V44.083h3.321a2.573,2.573,0,0,0,2.392-3.51m-2.1,1.137a.345.345,0,0,1-.291.153H51.005a1.109,1.109,0,0,0-1.107,1.11v9.265a2.373,2.373,0,0,1-2.5,2.373l-4.437-.147a3.574,3.574,0,0,0-3.738,3.575V69.6l-20.166-3V63.652c0-6.758-2.756-9.552-6.246-13.09-1.2-1.211-2.549-2.584-3.937-4.264A29.192,29.192,0,0,1,2.215,27.746a25.7,25.7,0,0,1,8.1-19.262A24.252,24.252,0,0,1,29.129,2.329c9.341.835,15.669,5.115,18.81,12.722A27.907,27.907,0,0,1,49.9,26.5a1.119,1.119,0,0,0,.077.506l5.786,14.376a.347.347,0,0,1-.039.327" transform="translate(609 1638)" fill="#1fa9c3"/></g></g></svg>
