<svg xmlns="http://www.w3.org/2000/svg" xmlns:xlink="http://www.w3.org/1999/xlink" viewBox="0 0 165 34.457"><defs><clipPath id="a"><rect width="165" height="34.457" fill="none"/></clipPath></defs><g clip-path="url(#a)"><path d="M292.895,50.1a8.874,8.874,0,0,1-1.11-.069.948.948,0,1,1,.235-1.881,7.185,7.185,0,0,0,7.246-3.8.948.948,0,0,1,1.682.877,9.081,9.081,0,0,1-8.053,4.878" transform="translate(-153.021 -23.054)" fill="#1e97ad"/><path d="M11.811,28.894a3.922,3.922,0,0,0-1.335-1.356,7.382,7.382,0,0,0-1.85-.8c-.659-.192-1.4-.371-2.192-.533-.752-.153-1.4-.309-1.929-.465a4.335,4.335,0,0,1-1.125-.479,1.263,1.263,0,0,1-.462-.485,1.84,1.84,0,0,1-.154-.824,2.62,2.62,0,0,1,.183-1.017,1.73,1.73,0,0,1,.53-.686,2.964,2.964,0,0,1,1.072-.507,6.957,6.957,0,0,1,1.814-.2,5.244,5.244,0,0,1,1.812.276,3.639,3.639,0,0,1,1.362,1,.951.951,0,0,0,.7.309h0a.949.949,0,0,0,.695-.3l.257-.277a.948.948,0,0,0,.006-1.285,5.8,5.8,0,0,0-2.187-1.54,7.448,7.448,0,0,0-2.685-.45,8.636,8.636,0,0,0-2.277.281,5.475,5.475,0,0,0-1.862.889A4.25,4.25,0,0,0,.918,21.961a4.553,4.553,0,0,0-.444,2.031A3.963,3.963,0,0,0,.9,25.9a3.535,3.535,0,0,0,1.279,1.32,6.774,6.774,0,0,0,1.77.741c.621.171,1.342.333,2.134.48a19.678,19.678,0,0,1,2,.489,4.512,4.512,0,0,1,1.207.547,1.61,1.61,0,0,1,.543.589,2.017,2.017,0,0,1,.174.905,1.672,1.672,0,0,1-.78,1.565,5.21,5.21,0,0,1-2.8.631,6.839,6.839,0,0,1-2.51-.429A5.661,5.661,0,0,1,1.93,31.361.948.948,0,0,0,.63,31.3l-.3.257a.949.949,0,0,0-.05,1.387,8.228,8.228,0,0,0,2.761,1.861A9.068,9.068,0,0,0,6.4,35.4a7.237,7.237,0,0,0,4.167-1.078,4.3,4.3,0,0,0,1.24-5.427" transform="translate(0 -10.133)" fill="#1a1311"/><path d="M33.046,35.359,41.188,19.1,49.3,35.359Z" transform="translate(-17.38 -10.047)" fill="#1e97ad"/><path d="M92.869,33.659l-5.356-6.768,5.321-5.986a.948.948,0,0,0-.708-1.578h-.571a.948.948,0,0,0-.711.32L80.483,31.381V20.275a.948.948,0,0,0-.948-.948h-.394a.948.948,0,0,0-.948.948V34.247a1.173,1.173,0,0,0,1.979.9l5.79-6.513,4.908,6.2a.947.947,0,0,0,.743.36h.512a.948.948,0,0,0,.743-1.536" transform="translate(-41.124 -10.165)" fill="#1a1311"/><path d="M246.231,8.265a.948.948,0,0,1-.861-1.344,9.083,9.083,0,0,1,8.912-5.258.948.948,0,1,1-.14,1.891,7.186,7.186,0,0,0-7.049,4.159.948.948,0,0,1-.862.552" transform="translate(-129.001 -0.861)" fill="#1a1311"/><path d="M267.441,27.735a8.128,8.128,0,1,1-8.128-8.128,8.128,8.128,0,0,1,8.128,8.128" transform="translate(-132.106 -10.312)" fill="#1e97ad"/><path d="M277.9,3.273A2.419,2.419,0,1,1,276.488.156,2.419,2.419,0,0,1,277.9,3.273" transform="translate(-143.692)" fill="#1e97ad"/><path d="M120.491,19.607v8.128a8.128,8.128,0,1,0,16.256,0V19.607Z" transform="translate(-63.37 -10.312)" fill="#1e97ad"/><path d="M182.109,16.082h-.452a.948.948,0,0,0-.948.948V33.06a.948.948,0,0,0,.948.948h.452a.948.948,0,0,0,.948-.948V17.03a.949.949,0,0,0-.948-.948" transform="translate(-95.04 -8.458)" fill="#1a1311"/><path d="M182.237,34.862h-17.01a.948.948,0,0,1-.948-.948v-.451a.948.948,0,0,1,.948-.948h17.01Z" transform="translate(-86.399 -17.1)" fill="#1e97ad"/><path d="M219.92,16.082h-.452a.948.948,0,0,0-.948.948V33.06a.948.948,0,0,0,.948.948h.452a.948.948,0,0,0,.948-.948V17.03a.948.948,0,0,0-.948-.948" transform="translate(-114.926 -8.458)" fill="#1e97ad"/><path d="M202.16,32.513h16.945a.949.949,0,0,1,.948.948v.451a.948.948,0,0,1-.948.948H202.16Z" transform="translate(-106.321 -17.1)" fill="#1a1311"/><path d="M331.478,37.664a5.229,5.229,0,0,0-4.2,2.13l-.518.706,1.884.709.3-.375a3.252,3.252,0,1,1-.669,2.608l-.317-1.784-1.511,2.6.1.286a5.209,5.209,0,1,0,4.935-6.879" transform="translate(-171.687 -19.809)" fill="#1e97ad"/><path d="M319.9,27.147a1.107,1.107,0,0,0-1.323-.441,1.2,1.2,0,0,0-.448.291l-.077.09c-.361.5-.728.981-1.093,1.416a16.126,16.126,0,0,1-1.145,1.228,15.814,15.814,0,0,1-1.33,1.145c-.49.377-1.053.772-1.679,1.177a3.725,3.725,0,0,1-.868.432,1.784,1.784,0,0,1-.853.092.4.4,0,0,1-.314-.219.967.967,0,0,1-.071-.142.375.375,0,0,1-.026-.091c-.01-.039-.018-.075-.022-.1-.016-.268-.024-.54-.027-.816q0-.3.005-.613c.937-1.143,1.749-2.161,2.414-3.028.721-.94,1.334-1.808,1.823-2.579a18.464,18.464,0,0,0,1.231-2.242,15.682,15.682,0,0,0,.805-2.214c.07-.258.135-.533.2-.823a6.537,6.537,0,0,0,.124-.931,4.687,4.687,0,0,0-.039-.944,2.591,2.591,0,0,0-.328-.954,2.214,2.214,0,0,0-1.207-.958,2.576,2.576,0,0,0-1.708.014,3.454,3.454,0,0,0-1.067.6,4.83,4.83,0,0,0-.974,1.075c-.266.391-.508.78-.716,1.158a11,11,0,0,0-.506,1.021,3.848,3.848,0,0,0-.2.541q-.2.633-.358,1.173-.17.567-.374,1.33c-.135.5-.267,1.064-.391,1.657q-.18.817-.365,1.789c-.126.665-.233,1.335-.32,1.992-.09.677-.154,1.354-.19,2.017a12.419,12.419,0,0,0,.03,1.851,2.323,2.323,0,0,0,.07.407,2.608,2.608,0,0,0,.312.742,2.5,2.5,0,0,0,.585.661,2.7,2.7,0,0,0,.866.457,3.137,3.137,0,0,0,.951.139h.117a4.232,4.232,0,0,0,1.207-.233c.213-.071.442-.159.68-.263a5.191,5.191,0,0,0,.748-.4,20.889,20.889,0,0,0,1.845-1.281,19.408,19.408,0,0,0,1.493-1.3,17.2,17.2,0,0,0,1.293-1.393c.383-.461.772-.961,1.157-1.487a.868.868,0,0,0,.074-1.044m-5.071-7.1a12.9,12.9,0,0,1-.43,1.274c-.164.41-.354.832-.566,1.257a14.768,14.768,0,0,1-.742,1.3c-.3.464-.636.968-1.01,1.5-.3.419-.633.872-1,1.349.066-.384.136-.759.207-1.122.128-.647.265-1.266.409-1.839s.277-1.082.394-1.509.212-.746.294-.987c.065-.194.106-.313.139-.391.114-.3.226-.558.33-.782s.234-.474.381-.743a6.6,6.6,0,0,1,.468-.736,3.841,3.841,0,0,1,.527-.586,1.285,1.285,0,0,1,.445-.27.483.483,0,0,1,.153-.03.227.227,0,0,1,.064.009c.028.009.043.015.07.06a1.426,1.426,0,0,1,.123.723,6.241,6.241,0,0,1-.254,1.527" transform="translate(-162.221 -8.299)" fill="#1a1311"/><path d="M322.217,53.47a.949.949,0,0,1-.919-1.181l3.913-15.421a.948.948,0,1,1,1.838.466l-3.913,15.421a.948.948,0,0,1-.918.715" transform="translate(-168.964 -19.013)" fill="#1a1311"/></g></svg>
